<mxfile host="app.diagrams.net" modified="2022-07-19T22:01:04.211Z" agent="5.0 (Windows NT 6.1) AppleWebKit/537.36 (KHTML, like Gecko) Chrome/103.0.0.0 Safari/537.36" etag="fTPZIBeuBW_b-eIApN9l" version="20.1.1" type="github">
  <diagram id="6uO-eHTbM15UtRN5iUZ_" name="Page-1">
    <mxGraphModel dx="862" dy="482" grid="1" gridSize="10" guides="1" tooltips="1" connect="1" arrows="1" fold="1" page="1" pageScale="1" pageWidth="827" pageHeight="1169" math="0" shadow="0">
      <root>
        <mxCell id="0" />
        <mxCell id="1" parent="0" />
        <mxCell id="hlaqDfPsWXnt74N-YM_j-1" value="Portafolio" style="text;html=1;fontSize=50;fontStyle=1;verticalAlign=middle;align=center;fontFamily=Times New Roman;labelBackgroundColor=none;fillColor=none;strokeColor=none;rounded=0;shadow=1;" vertex="1" parent="1">
          <mxGeometry x="236" y="40" width="356" height="40" as="geometry" />
        </mxCell>
        <mxCell id="hlaqDfPsWXnt74N-YM_j-10" style="edgeStyle=orthogonalEdgeStyle;rounded=0;orthogonalLoop=1;jettySize=auto;html=1;exitX=0;exitY=0.5;exitDx=0;exitDy=0;entryX=0;entryY=0.5;entryDx=0;entryDy=0;fontFamily=Verdana;fontSize=12;" edge="1" parent="1" source="hlaqDfPsWXnt74N-YM_j-3" target="hlaqDfPsWXnt74N-YM_j-3">
          <mxGeometry relative="1" as="geometry" />
        </mxCell>
        <mxCell id="hlaqDfPsWXnt74N-YM_j-11" style="edgeStyle=orthogonalEdgeStyle;orthogonalLoop=1;jettySize=auto;html=1;exitX=0;exitY=0.5;exitDx=0;exitDy=0;entryX=0;entryY=0;entryDx=0;entryDy=0;entryPerimeter=0;fontFamily=Verdana;fontSize=12;strokeColor=default;rounded=0;strokeWidth=2;endArrow=none;endFill=0;" edge="1" parent="1" source="hlaqDfPsWXnt74N-YM_j-3" target="hlaqDfPsWXnt74N-YM_j-9">
          <mxGeometry relative="1" as="geometry">
            <Array as="points">
              <mxPoint x="40" y="180" />
              <mxPoint x="40" y="180" />
            </Array>
          </mxGeometry>
        </mxCell>
        <mxCell id="hlaqDfPsWXnt74N-YM_j-3" value="&lt;p style=&quot;font-size: 12px;&quot;&gt;&lt;font face=&quot;Verdana&quot; style=&quot;line-height: 1; font-size: 12px;&quot;&gt;Frontend&lt;/font&gt;&lt;/p&gt;" style="shape=hexagon;perimeter=hexagonPerimeter2;whiteSpace=wrap;html=1;fixedSize=1;rounded=0;shadow=0;labelBackgroundColor=none;fontFamily=Times New Roman;fontSize=12;strokeColor=default;fillColor=none;align=center;size=20;direction=east;strokeWidth=2;fontStyle=1" vertex="1" parent="1">
          <mxGeometry x="40" y="150" width="110" height="30" as="geometry" />
        </mxCell>
        <mxCell id="hlaqDfPsWXnt74N-YM_j-9" value="" style="strokeWidth=2;html=1;shape=mxgraph.flowchart.annotation_1;align=left;pointerEvents=1;rounded=0;shadow=0;labelBackgroundColor=none;fontFamily=Verdana;fontSize=12;fillColor=none;" vertex="1" parent="1">
          <mxGeometry x="40" y="210" width="30" height="20" as="geometry" />
        </mxCell>
        <mxCell id="hlaqDfPsWXnt74N-YM_j-12" value="Login" style="text;html=1;strokeColor=none;fillColor=none;align=center;verticalAlign=middle;whiteSpace=wrap;rounded=0;shadow=0;labelBackgroundColor=none;fontFamily=Verdana;fontSize=12;fontStyle=1" vertex="1" parent="1">
          <mxGeometry x="60" y="200" width="60" height="30" as="geometry" />
        </mxCell>
      </root>
    </mxGraphModel>
  </diagram>
</mxfile>
